<mxfile host="Electron" agent="Mozilla/5.0 (Windows NT 10.0; Win64; x64) AppleWebKit/537.36 (KHTML, like Gecko) draw.io/28.2.5 Chrome/138.0.7204.251 Electron/37.6.1 Safari/537.36" version="28.2.5">
  <diagram name="Page-1" id="VEGd2wqhWMHV7ecN-Q0v">
    <mxGraphModel dx="2276" dy="849" grid="1" gridSize="10" guides="1" tooltips="1" connect="1" arrows="1" fold="1" page="1" pageScale="1" pageWidth="850" pageHeight="1100" math="0" shadow="0">
      <root>
        <mxCell id="0" />
        <mxCell id="1" parent="0" />
        <mxCell id="FeOiV0u2_GL4LzS7E-h--1" value="crm_cust_info" style="swimlane;fontStyle=0;childLayout=stackLayout;horizontal=1;startSize=30;horizontalStack=0;resizeParent=1;resizeParentMax=0;resizeLast=0;collapsible=1;marginBottom=0;whiteSpace=wrap;html=1;strokeWidth=2;rounded=1;swimlaneLine=1;glass=0;shadow=0;fontSize=14;labelBackgroundColor=default;" vertex="1" parent="1">
          <mxGeometry x="-30" y="140" width="140" height="90" as="geometry" />
        </mxCell>
        <mxCell id="FeOiV0u2_GL4LzS7E-h--2" value="cst_id" style="text;align=left;verticalAlign=middle;spacingLeft=4;spacingRight=4;overflow=hidden;points=[[0,0.5],[1,0.5]];portConstraint=eastwest;rotatable=0;whiteSpace=wrap;html=1;fontSize=14;labelBackgroundColor=default;" vertex="1" parent="FeOiV0u2_GL4LzS7E-h--1">
          <mxGeometry y="30" width="140" height="30" as="geometry" />
        </mxCell>
        <mxCell id="FeOiV0u2_GL4LzS7E-h--19" value="cst_key" style="text;align=left;verticalAlign=middle;spacingLeft=4;spacingRight=4;overflow=hidden;points=[[0,0.5],[1,0.5]];portConstraint=eastwest;rotatable=0;whiteSpace=wrap;html=1;fontSize=14;labelBackgroundColor=default;" vertex="1" parent="FeOiV0u2_GL4LzS7E-h--1">
          <mxGeometry y="60" width="140" height="30" as="geometry" />
        </mxCell>
        <mxCell id="FeOiV0u2_GL4LzS7E-h--5" value="crm_prd_info" style="swimlane;fontStyle=0;childLayout=stackLayout;horizontal=1;startSize=30;horizontalStack=0;resizeParent=1;resizeParentMax=0;resizeLast=0;collapsible=1;marginBottom=0;whiteSpace=wrap;html=1;strokeWidth=2;rounded=1;swimlaneLine=1;glass=0;shadow=0;fontSize=14;labelBackgroundColor=default;" vertex="1" parent="1">
          <mxGeometry x="-40" y="520" width="160" height="90" as="geometry" />
        </mxCell>
        <mxCell id="FeOiV0u2_GL4LzS7E-h--6" value="prd_id" style="text;align=left;verticalAlign=middle;spacingLeft=4;spacingRight=4;overflow=hidden;points=[[0,0.5],[1,0.5]];portConstraint=eastwest;rotatable=0;whiteSpace=wrap;html=1;fontSize=14;labelBackgroundColor=default;" vertex="1" parent="FeOiV0u2_GL4LzS7E-h--5">
          <mxGeometry y="30" width="160" height="30" as="geometry" />
        </mxCell>
        <mxCell id="FeOiV0u2_GL4LzS7E-h--12" style="text;align=left;verticalAlign=middle;spacingLeft=4;spacingRight=4;overflow=hidden;points=[[0,0.5],[1,0.5]];portConstraint=eastwest;rotatable=0;whiteSpace=wrap;html=1;fontSize=14;labelBackgroundColor=default;" vertex="1" parent="FeOiV0u2_GL4LzS7E-h--5">
          <mxGeometry y="60" width="160" height="30" as="geometry" />
        </mxCell>
        <mxCell id="FeOiV0u2_GL4LzS7E-h--7" value="Customer information" style="text;html=1;align=center;verticalAlign=middle;whiteSpace=wrap;rounded=0;fontSize=14;" vertex="1" parent="1">
          <mxGeometry x="-30" y="70" width="130" height="40" as="geometry" />
        </mxCell>
        <mxCell id="FeOiV0u2_GL4LzS7E-h--8" value="Product&amp;nbsp;&lt;div&gt;information&lt;/div&gt;" style="text;html=1;align=center;verticalAlign=middle;whiteSpace=wrap;rounded=0;fontSize=14;" vertex="1" parent="1">
          <mxGeometry x="-30" y="470" width="130" height="40" as="geometry" />
        </mxCell>
        <mxCell id="FeOiV0u2_GL4LzS7E-h--9" value="crm_sales_details" style="swimlane;fontStyle=0;childLayout=stackLayout;horizontal=1;startSize=30;horizontalStack=0;resizeParent=1;resizeParentMax=0;resizeLast=0;collapsible=1;marginBottom=0;whiteSpace=wrap;html=1;strokeWidth=2;rounded=1;swimlaneLine=1;glass=0;shadow=0;fontSize=14;labelBackgroundColor=default;" vertex="1" parent="1">
          <mxGeometry x="-40" y="320" width="160" height="90" as="geometry" />
        </mxCell>
        <mxCell id="FeOiV0u2_GL4LzS7E-h--13" value="cst_id" style="text;align=left;verticalAlign=middle;spacingLeft=4;spacingRight=4;overflow=hidden;points=[[0,0.5],[1,0.5]];portConstraint=eastwest;rotatable=0;whiteSpace=wrap;html=1;fontSize=14;labelBackgroundColor=default;" vertex="1" parent="FeOiV0u2_GL4LzS7E-h--9">
          <mxGeometry y="30" width="160" height="30" as="geometry" />
        </mxCell>
        <mxCell id="FeOiV0u2_GL4LzS7E-h--10" value="prd_key" style="text;align=left;verticalAlign=middle;spacingLeft=4;spacingRight=4;overflow=hidden;points=[[0,0.5],[1,0.5]];portConstraint=eastwest;rotatable=0;whiteSpace=wrap;html=1;fontSize=14;labelBackgroundColor=default;" vertex="1" parent="FeOiV0u2_GL4LzS7E-h--9">
          <mxGeometry y="60" width="160" height="30" as="geometry" />
        </mxCell>
        <mxCell id="FeOiV0u2_GL4LzS7E-h--11" value="Transactions Records on Sales" style="text;html=1;align=center;verticalAlign=middle;whiteSpace=wrap;rounded=0;fontSize=14;" vertex="1" parent="1">
          <mxGeometry x="-30" y="280" width="130" height="40" as="geometry" />
        </mxCell>
        <mxCell id="FeOiV0u2_GL4LzS7E-h--15" value="erp_cust_az12" style="swimlane;fontStyle=0;childLayout=stackLayout;horizontal=1;startSize=30;horizontalStack=0;resizeParent=1;resizeParentMax=0;resizeLast=0;collapsible=1;marginBottom=0;whiteSpace=wrap;html=1;strokeWidth=2;rounded=1;swimlaneLine=1;glass=0;shadow=0;fontSize=14;labelBackgroundColor=default;" vertex="1" parent="1">
          <mxGeometry x="530" y="140" width="160" height="90" as="geometry" />
        </mxCell>
        <mxCell id="FeOiV0u2_GL4LzS7E-h--16" value="cid" style="text;align=left;verticalAlign=middle;spacingLeft=4;spacingRight=4;overflow=hidden;points=[[0,0.5],[1,0.5]];portConstraint=eastwest;rotatable=0;whiteSpace=wrap;html=1;fontSize=14;labelBackgroundColor=default;" vertex="1" parent="FeOiV0u2_GL4LzS7E-h--15">
          <mxGeometry y="30" width="160" height="30" as="geometry" />
        </mxCell>
        <mxCell id="FeOiV0u2_GL4LzS7E-h--17" style="text;align=left;verticalAlign=middle;spacingLeft=4;spacingRight=4;overflow=hidden;points=[[0,0.5],[1,0.5]];portConstraint=eastwest;rotatable=0;whiteSpace=wrap;html=1;fontSize=14;labelBackgroundColor=default;" vertex="1" parent="FeOiV0u2_GL4LzS7E-h--15">
          <mxGeometry y="60" width="160" height="30" as="geometry" />
        </mxCell>
        <mxCell id="FeOiV0u2_GL4LzS7E-h--18" value="Extra Customer Information" style="text;html=1;align=center;verticalAlign=middle;whiteSpace=wrap;rounded=0;fontSize=14;" vertex="1" parent="1">
          <mxGeometry x="530" y="70" width="130" height="40" as="geometry" />
        </mxCell>
        <mxCell id="FeOiV0u2_GL4LzS7E-h--20" value="erp_loc_a101" style="swimlane;fontStyle=0;childLayout=stackLayout;horizontal=1;startSize=30;horizontalStack=0;resizeParent=1;resizeParentMax=0;resizeLast=0;collapsible=1;marginBottom=0;whiteSpace=wrap;html=1;strokeWidth=2;rounded=1;swimlaneLine=1;glass=0;shadow=0;fontSize=14;labelBackgroundColor=default;" vertex="1" parent="1">
          <mxGeometry x="530" y="320" width="160" height="60" as="geometry" />
        </mxCell>
        <mxCell id="FeOiV0u2_GL4LzS7E-h--35" value="cid" style="text;align=left;verticalAlign=middle;spacingLeft=4;spacingRight=4;overflow=hidden;points=[[0,0.5],[1,0.5]];portConstraint=eastwest;rotatable=0;whiteSpace=wrap;html=1;fontSize=14;labelBackgroundColor=default;" vertex="1" parent="FeOiV0u2_GL4LzS7E-h--20">
          <mxGeometry y="30" width="160" height="30" as="geometry" />
        </mxCell>
        <mxCell id="FeOiV0u2_GL4LzS7E-h--23" value="Customer Location" style="text;html=1;align=center;verticalAlign=middle;whiteSpace=wrap;rounded=0;fontSize=14;" vertex="1" parent="1">
          <mxGeometry x="540" y="280" width="130" height="40" as="geometry" />
        </mxCell>
        <mxCell id="FeOiV0u2_GL4LzS7E-h--27" value="erp_px_cat_g1v2" style="swimlane;fontStyle=0;childLayout=stackLayout;horizontal=1;startSize=30;horizontalStack=0;resizeParent=1;resizeParentMax=0;resizeLast=0;collapsible=1;marginBottom=0;whiteSpace=wrap;html=1;strokeWidth=2;rounded=1;swimlaneLine=1;glass=0;shadow=0;fontSize=14;labelBackgroundColor=default;" vertex="1" parent="1">
          <mxGeometry x="520" y="490" width="160" height="60" as="geometry" />
        </mxCell>
        <mxCell id="FeOiV0u2_GL4LzS7E-h--28" value="id" style="text;align=left;verticalAlign=middle;spacingLeft=4;spacingRight=4;overflow=hidden;points=[[0,0.5],[1,0.5]];portConstraint=eastwest;rotatable=0;whiteSpace=wrap;html=1;fontSize=14;labelBackgroundColor=default;" vertex="1" parent="FeOiV0u2_GL4LzS7E-h--27">
          <mxGeometry y="30" width="160" height="30" as="geometry" />
        </mxCell>
        <mxCell id="FeOiV0u2_GL4LzS7E-h--30" value="Customer Location" style="text;html=1;align=center;verticalAlign=middle;whiteSpace=wrap;rounded=0;fontSize=14;" vertex="1" parent="1">
          <mxGeometry x="530" y="450" width="130" height="40" as="geometry" />
        </mxCell>
        <mxCell id="FeOiV0u2_GL4LzS7E-h--31" style="edgeStyle=orthogonalEdgeStyle;rounded=0;orthogonalLoop=1;jettySize=auto;html=1;entryX=0;entryY=0.5;entryDx=0;entryDy=0;" edge="1" parent="1" source="FeOiV0u2_GL4LzS7E-h--13" target="FeOiV0u2_GL4LzS7E-h--2">
          <mxGeometry relative="1" as="geometry">
            <mxPoint x="-42" y="190" as="targetPoint" />
          </mxGeometry>
        </mxCell>
        <mxCell id="FeOiV0u2_GL4LzS7E-h--34" style="edgeStyle=orthogonalEdgeStyle;rounded=0;orthogonalLoop=1;jettySize=auto;html=1;entryX=0;entryY=0.5;entryDx=0;entryDy=0;" edge="1" parent="1" source="FeOiV0u2_GL4LzS7E-h--10" target="FeOiV0u2_GL4LzS7E-h--5">
          <mxGeometry relative="1" as="geometry" />
        </mxCell>
        <mxCell id="FeOiV0u2_GL4LzS7E-h--36" style="edgeStyle=orthogonalEdgeStyle;rounded=0;orthogonalLoop=1;jettySize=auto;html=1;strokeColor=#FFFF00;" edge="1" parent="1" source="FeOiV0u2_GL4LzS7E-h--35" target="FeOiV0u2_GL4LzS7E-h--13">
          <mxGeometry relative="1" as="geometry" />
        </mxCell>
        <mxCell id="FeOiV0u2_GL4LzS7E-h--37" style="edgeStyle=orthogonalEdgeStyle;rounded=0;orthogonalLoop=1;jettySize=auto;html=1;strokeColor=#FFFF00;" edge="1" parent="1">
          <mxGeometry relative="1" as="geometry">
            <mxPoint x="530" y="532.5" as="sourcePoint" />
            <mxPoint x="120" y="197.5" as="targetPoint" />
            <Array as="points">
              <mxPoint x="325" y="532.5" />
              <mxPoint x="325" y="197.5" />
            </Array>
          </mxGeometry>
        </mxCell>
        <mxCell id="FeOiV0u2_GL4LzS7E-h--38" style="edgeStyle=orthogonalEdgeStyle;rounded=0;orthogonalLoop=1;jettySize=auto;html=1;strokeColor=#FFFF00;" edge="1" parent="1" source="FeOiV0u2_GL4LzS7E-h--16" target="FeOiV0u2_GL4LzS7E-h--2">
          <mxGeometry relative="1" as="geometry" />
        </mxCell>
        <mxCell id="FeOiV0u2_GL4LzS7E-h--39" value="" style="rounded=1;whiteSpace=wrap;html=1;fillColor=none;" vertex="1" parent="1">
          <mxGeometry x="-110" y="30" width="400" height="650" as="geometry" />
        </mxCell>
        <mxCell id="FeOiV0u2_GL4LzS7E-h--40" value="&lt;font style=&quot;font-size: 26px;&quot;&gt;CRM&lt;/font&gt;" style="rounded=1;whiteSpace=wrap;html=1;fillColor=#cdeb8b;strokeColor=#36393d;" vertex="1" parent="1">
          <mxGeometry x="30" width="120" height="60" as="geometry" />
        </mxCell>
        <mxCell id="FeOiV0u2_GL4LzS7E-h--41" value="" style="rounded=1;whiteSpace=wrap;html=1;fillColor=none;" vertex="1" parent="1">
          <mxGeometry x="395" y="30" width="400" height="650" as="geometry" />
        </mxCell>
        <mxCell id="FeOiV0u2_GL4LzS7E-h--42" value="&lt;font style=&quot;font-size: 26px;&quot;&gt;ERP&lt;/font&gt;" style="rounded=1;whiteSpace=wrap;html=1;fillColor=#ffcccc;strokeColor=#36393d;" vertex="1" parent="1">
          <mxGeometry x="535" width="120" height="60" as="geometry" />
        </mxCell>
        <mxCell id="FeOiV0u2_GL4LzS7E-h--43" value="" style="rounded=0;whiteSpace=wrap;html=1;" vertex="1" parent="1">
          <mxGeometry x="390" y="250" width="120" height="60" as="geometry" />
        </mxCell>
        <mxCell id="FeOiV0u2_GL4LzS7E-h--44" value="PRODUCT" style="rounded=0;fillColor=#ffcccc;strokeColor=#FF0000;labelBackgroundColor=none;html=1;whiteSpace=wrap;textShadow=1;fontColor=#000000;fontSize=13;" vertex="1" parent="1">
          <mxGeometry x="520" y="550" width="160" height="30" as="geometry" />
        </mxCell>
        <mxCell id="FeOiV0u2_GL4LzS7E-h--45" value="PRODUCT" style="rounded=0;fillColor=#ffcccc;strokeColor=#FF0000;labelBackgroundColor=none;html=1;whiteSpace=wrap;textShadow=1;fontColor=#000000;fontSize=13;" vertex="1" parent="1">
          <mxGeometry x="-40" y="610" width="160" height="30" as="geometry" />
        </mxCell>
        <mxCell id="FeOiV0u2_GL4LzS7E-h--46" value="CUSTOMER" style="rounded=0;fillColor=#cdeb8b;strokeColor=#36393d;labelBackgroundColor=none;html=1;whiteSpace=wrap;textShadow=1;fontSize=13;fontColor=#00994D;" vertex="1" parent="1">
          <mxGeometry x="-30" y="230" width="140" height="30" as="geometry" />
        </mxCell>
        <mxCell id="FeOiV0u2_GL4LzS7E-h--47" value="CUSTOMER" style="rounded=0;fillColor=#cdeb8b;strokeColor=#36393d;labelBackgroundColor=none;html=1;whiteSpace=wrap;textShadow=1;fontSize=13;fontColor=#00994D;" vertex="1" parent="1">
          <mxGeometry x="535" y="380" width="155" height="30" as="geometry" />
        </mxCell>
        <mxCell id="FeOiV0u2_GL4LzS7E-h--48" value="SALES" style="rounded=0;fillColor=#FF8000;strokeColor=#36393d;labelBackgroundColor=none;html=1;whiteSpace=wrap;textShadow=1;fontSize=13;" vertex="1" parent="1">
          <mxGeometry x="-35" y="410" width="140" height="30" as="geometry" />
        </mxCell>
        <mxCell id="FeOiV0u2_GL4LzS7E-h--50" value="CUSTOMER" style="rounded=0;fillColor=#cdeb8b;strokeColor=#36393d;labelBackgroundColor=none;html=1;whiteSpace=wrap;textShadow=1;fontSize=13;fontColor=#00994D;" vertex="1" parent="1">
          <mxGeometry x="532.5" y="230" width="155" height="30" as="geometry" />
        </mxCell>
      </root>
    </mxGraphModel>
  </diagram>
</mxfile>
